# xmcd CD database file
#
# Track frame offsets:
#	150
#	21090
#	35042
#	50792
#	68717
#	87092
#	103812
#	124517
#	141537
#	157812
#	172962
#	188567
#
# Disc length: 2780 seconds
#
# Revision: 4
# Processed by: cddbd v1.5.2PL0 Copyright (c) Steve Scherf et al.
# Submitted via: CDex 1.70beta3
#
DISCID=9e0ada0c
DTITLE=松田聖子 - Touch Me, Seiko
DYEAR=1984
DGENRE=JPop
TTITLE0=SWEET MEMORIES
TTITLE1=TRUE LOVE〜そっとくちづけて
TTITLE2=Romance
TTITLE3=蒼いフォトグラフ
TTITLE4=わがままな片想い
TTITLE5=レモネードの夏
TTITLE6=ボン・ボヤージュ
TTITLE7=レンガの小径
TTITLE8=制服
TTITLE9=Eighteen
TTITLE10=マドラス・チェックの恋人
TTITLE11=愛されたいの
EXTD=YEAR: 1984
EXTT0=
EXTT1=
EXTT2=
EXTT3=
EXTT4=
EXTT5=
EXTT6=
EXTT7=
EXTT8=
EXTT9=
EXTT10=
EXTT11=
PLAYORDER=
